<svg viewBox="0 0 120 80" width="64" height="48" xmlns="http://www.w3.org/2000/svg">
    <defs>
        <radialGradient id="pulsePurplePink" cx="50%" cy="50%" r="50%">
            <stop offset="0%" stop-color="#fff0fa" stop-opacity="0.95"/>
            <stop offset="50%" stop-color="#ff61d3" stop-opacity="0.6"/>
            <stop offset="100%" stop-color="#bc00ff" stop-opacity="0"/>
        </radialGradient>
        <filter id="glowPurplePink" width="200%" height="200%" x="-50%" y="-50%">
            <feGaussianBlur stdDeviation="8" result="blur"/>
            <feMerge>
                <feMergeNode in="blur"/>
                <feMergeNode in="SourceGraphic"/>
            </feMerge>
        </filter>
        <filter id="shadowPurplePink" x="-30%" y="-30%" width="160%" height="160%">
            <feDropShadow dx="0" dy="2" stdDeviation="2" flood-color="#6d006d" flood-opacity="0.7"/>
        </filter>
    </defs>
    <!-- Пульс -->
    <ellipse cx="60" cy="40" rx="38" ry="16" fill="url(#pulsePurplePink)" filter="url(#glowPurplePink)">
        <animate attributeName="rx" values="33;41;33" dur="2.2s" repeatCount="indefinite"/>
        <animate attributeName="ry" values="12;18;12" dur="2.2s" repeatCount="indefinite"/>
        <animate attributeName="opacity" values="0.48;0.95;0.48" dur="2.2s" repeatCount="indefinite"/>
    </ellipse>
    <!-- Сонячні панелі -->
    <rect x="12" y="21" width="16" height="38" rx="3" fill="#ff61d3" stroke="#bc00ff" stroke-width="2.5" filter="url(#shadowPurplePink)" opacity="0.96"/>
    <rect x="16" y="26" width="2.5" height="29" fill="#fff0fa" opacity="0.5"/>
    <rect x="21" y="26" width="2.5" height="29" fill="#ffd6f6" opacity="0.35"/>
    <rect x="92" y="21" width="16" height="38" rx="3" fill="#ff61d3" stroke="#bc00ff" stroke-width="2.5" filter="url(#shadowPurplePink)" opacity="0.96"/>
    <rect x="97" y="26" width="2.5" height="29" fill="#fff0fa" opacity="0.5"/>
    <rect x="102" y="26" width="2.5" height="29" fill="#ffd6f6" opacity="0.35"/>
    <!-- Центральний модуль -->
    <rect x="41" y="31" width="38" height="18" rx="7" fill="#fff0fa" stroke="#bc00ff" stroke-width="2.5" filter="url(#shadowPurplePink)"/>
    <rect x="36" y="36" width="6" height="8" rx="2.5" fill="#bc00ff" filter="url(#shadowPurplePink)"/>
    <rect x="78" y="36" width="6" height="8" rx="2.5" fill="#bc00ff" filter="url(#shadowPurplePink)"/>
    <rect x="54" y="28" width="12" height="24" rx="4" fill="#ff61d3" opacity="0.23"/>
    <!-- Торці -->
    <rect x="74" y="19" width="2.5" height="8" rx="1.2" fill="#fff"/>
    <rect x="43.5" y="19" width="2.5" height="8" rx="1.2" fill="#fff"/>
    <rect x="74" y="53" width="2.5" height="8" rx="1.2" fill="#fff"/>
    <rect x="43.5" y="53" width="2.5" height="8" rx="1.2" fill="#fff"/>
    <!-- Тінь -->
    <ellipse cx="60" cy="40" rx="21" ry="7" fill="#222" opacity="0.20"/>
    <!-- Яскравий хрестик -->
    <g opacity="0.92">
        <rect x="59" y="36" width="2" height="8" rx="1" fill="#ff61d3"/>
        <rect x="56" y="39" width="8" height="2" rx="1" fill="#ff61d3"/>
    </g>
</svg>