<svg viewBox="0 0 120 80" width="64" height="48" xmlns="http://www.w3.org/2000/svg">
    <defs>
        <radialGradient id="pulseGradient" cx="50%" cy="50%" r="50%">
            <stop offset="0%" stop-color="#fff" stop-opacity="0.4"/>
            <stop offset="60%" stop-color="#76dbf9" stop-opacity="0.18"/>
            <stop offset="100%" stop-color="#39d4ff" stop-opacity="0"/>
        </radialGradient>
        <filter id="glow" width="200%" height="200%" x="-50%" y="-50%">
            <feGaussianBlur stdDeviation="7" result="blur"/>
            <feMerge>
                <feMergeNode in="blur"/>
                <feMergeNode in="SourceGraphic"/>
            </feMerge>
        </filter>
    </defs>
    <ellipse id="pulse" cx="60" cy="40" rx="34" ry="13" fill="url(#pulseGradient)" filter="url(#glow)">
        <animate attributeName="rx" values="30;38;30" dur="2.2s" repeatCount="indefinite"/>
        <animate attributeName="ry" values="11;15;11" dur="2.2s" repeatCount="indefinite"/>
        <animate attributeName="opacity" values="0.23;0.4;0.23" dur="2.2s" repeatCount="indefinite"/>
    </ellipse>
    <rect x="12" y="21" width="16" height="38" rx="3" fill="#76dbf9" stroke="#39d4ff" stroke-width="2" opacity="0.93"/>
    <rect x="16" y="26" width="2.5" height="29" fill="#b9eaff" opacity="0.38"/>
    <rect x="21" y="26" width="2.5" height="29" fill="#b9eaff" opacity="0.25"/>
    <rect x="92" y="21" width="16" height="38" rx="3" fill="#76dbf9" stroke="#39d4ff" stroke-width="2" opacity="0.93"/>
    <rect x="97" y="26" width="2.5" height="29" fill="#b9eaff" opacity="0.38"/>
    <rect x="102" y="26" width="2.5" height="29" fill="#b9eaff" opacity="0.25"/>
    <rect x="41" y="31" width="38" height="18" rx="7" fill="#ececec" stroke="#b9eaff" stroke-width="2"/>
    <rect x="36" y="36" width="6" height="8" rx="2.5" fill="#b9eaff"/>
    <rect x="78" y="36" width="6" height="8" rx="2.5" fill="#b9eaff"/>
    <rect x="54" y="28" width="12" height="24" rx="4" fill="#b9eaff" opacity="0.17"/>
    <rect x="74" y="19" width="2.5" height="8" rx="1.2" fill="#fff"/>
    <rect x="43.5" y="19" width="2.5" height="8" rx="1.2" fill="#fff"/>
    <rect x="74" y="53" width="2.5" height="8" rx="1.2" fill="#fff"/>
    <rect x="43.5" y="53" width="2.5" height="8" rx="1.2" fill="#fff"/>
    <ellipse cx="60" cy="40" rx="21" ry="7" fill="#222" opacity="0.08"/>
</svg>